<?xml version="1.0" encoding="UTF-8"?>
<!DOCTYPE svg PUBLIC "-//W3C//DTD SVG 1.1//EN" "http://www.w3.org/Graphics/SVG/1.1/DTD/svg11.dtd">
<!-- Creator: CorelDRAW 2020 (64 Bit) -->
<svg xmlns="http://www.w3.org/2000/svg" xml:space="preserve" width="826.144mm" height="277.365mm" version="1.1" style="shape-rendering:geometricPrecision; text-rendering:geometricPrecision; image-rendering:optimizeQuality; fill-rule:evenodd; clip-rule:evenodd"
viewBox="0 0 19437 6525.66"
 xmlns:xlink="http://www.w3.org/1999/xlink"
 xmlns:xodm="http://www.corel.com/coreldraw/odm/2003">
 <defs>
  <style type="text/css">
   <![CDATA[
    .fil1 {fill:black;fill-rule:nonzero}
    .fil0 {fill:black;fill-rule:nonzero}
   ]]>
  </style>
 </defs>
 <g id="Camada_x0020_1">
  <metadata id="CorelCorpID_0Corel-Layer"/>
  <g id="_1755718086256">
   <path class="fil0" d="M2681.22 4213.34l0 -571.6 -2044.8 0 0 -1261.06 1744.27 0 0 -565.72 -1744.27 0 0 -1225.69 2044.8 0 0 -571.6 -2681.22 0 0 4195.66 2681.22 0zm2999.42 0l0 -1997.66c0,-671.77 -406.6,-1025.34 -1231.59,-1025.34 -500.88,0 -789.63,106.08 -1066.59,436.07l388.92 371.25c170.9,-212.14 335.9,-294.65 654.1,-294.65 471.43,0 654.1,176.78 654.1,559.81l0 212.14 -783.74 0c-689.46,0 -1037.13,359.47 -1037.13,860.35 0,253.39 82.49,483.21 235.71,642.31 182.68,182.67 430.17,271.07 801.42,271.07 371.24,0 577.49,-88.4 795.52,-306.43l0 271.07 589.28 0zm-601.06 -1078.38c0,212.14 -35.36,353.56 -129.64,441.96 -159.1,147.32 -330,170.89 -542.14,170.89 -394.81,0 -565.7,-147.32 -565.7,-424.28 0,-276.95 182.67,-430.17 548.02,-430.17l689.46 0 0 241.6zm3736.02 165c0,-524.45 -324.1,-795.52 -942.84,-848.56l-418.39 -35.35c-294.65,-29.47 -412.5,-135.54 -412.5,-341.79 0,-229.82 176.78,-383.03 542.13,-383.03 282.86,0 548.02,58.93 736.6,218.03l377.14 -383.03c-276.96,-241.61 -654.1,-335.9 -1107.85,-335.9 -624.64,0 -1125.53,324.11 -1125.53,913.38 0,524.46 318.22,771.95 883.92,824.99l477.32 41.25c288.75,29.47 400.71,147.32 400.71,353.56 0,282.86 -282.86,412.49 -654.1,412.49 -294.63,0 -618.74,-64.81 -860.35,-312.31l-394.81 394.82c353.56,347.67 766.06,430.17 1255.16,430.17 713.03,0 1243.38,-324.11 1243.38,-948.74zm2928.71 -2074.26l-642.31 0 -695.35 2103.72 -713.02 -2103.72 -636.42 0 1043.02 2846.22 -165 465.52c-88.39,241.61 -176.79,318.22 -430.17,318.22l-153.22 0 0 542.13 241.61 0c229.82,0 447.85,-53.03 612.85,-218.03 88.39,-88.39 159.11,-206.25 218.03,-371.24l1319.98 -3582.81zm3252.82 -636.42l0 -571.6 -2681.22 0 0 4195.66 636.42 0 0 -1773.73 1744.27 0 0 -571.6 -1744.27 0 0 -1278.73 2044.8 0zm1296.41 3624.06l0 -2987.64 -601.06 0 0 2987.64 601.06 0zm17.68 -3576.92l0 -636.42 -636.42 0 0 636.42 636.42 0zm2186.22 3576.92l0 -512.68 -247.5 0c-223.93,0 -329.99,-129.64 -329.99,-347.67l0 -1667.66 577.49 0 0 -459.64 -577.49 0 0 -854.46 -601.07 0 0 854.46 -341.78 0 0 459.64 341.78 0 0 1697.12c0,430.17 259.28,830.88 819.11,830.88l359.46 0z"/>
   <g>
    <path class="fil0" d="M11576.11 5071.73c-73.57,0 -128.94,30.6 -166.97,90.94l0 -246.37 -54.57 0 0 578.7 54.57 0 0 -81.02c38.03,60.35 93.4,90.94 166.97,90.94 58.7,0 109.12,-20.67 150.47,-62.84 42.17,-42.17 62.82,-93.42 62.82,-153.77 0,-60.35 -20.66,-111.6 -62.82,-153.77 -41.34,-42.17 -91.76,-62.84 -150.47,-62.84zm-119.87 333.17c-31.4,-32.24 -47.1,-71.1 -47.1,-116.57 0,-45.46 15.7,-84.33 47.1,-115.74 31.42,-32.24 70.27,-47.96 115.74,-47.96 45.48,0 84.33,15.72 115.75,47.96 31.4,31.4 47.12,70.27 47.12,115.74 0,45.46 -15.72,84.33 -47.12,116.57 -31.42,31.4 -70.27,47.12 -115.75,47.12 -45.46,0 -84.32,-15.72 -115.74,-47.12zm571.26 23.15l-155.42 -346.4 -57.87 0 185.18 415.83 -10.75 25.63c-25.63,62.84 -63.66,91.76 -113.26,85.99l0 51.25c72.75,5.78 134.75,-45.48 166.99,-127.32l176.91 -451.39 -57.87 0 -133.93 346.4z"/>
    <path class="fil0" d="M13668.86 5982.88c-57.64,47.16 -160.68,85.58 -277.68,85.58 -143.19,-1.76 -265.44,-52.4 -368.48,-151.93 -103.03,-99.56 -158.9,-230.52 -167.64,-391.19 -13.98,-239.26 73.34,-433.09 221.78,-522.18 120.51,-75.08 253.23,-83.82 394.69,-26.19 120.49,48.9 213.05,136.23 275.92,260.21l1.73 -218.28 -24.44 -15.74c-33.19,-22.68 -118.75,-57.61 -209.55,-73.32 -62.87,-12.23 -130.98,-15.73 -206.07,-12.23 -309.1,22.71 -597.25,232.28 -586.78,640.93 1.76,160.64 68.11,314.34 179.88,431.32 110.01,118.77 291.62,185.12 494.19,162.44 113.51,-12.24 218.3,-71.61 272.44,-127.49 26.18,-27.95 50.63,-59.37 73.34,-94.3 41.9,-69.88 45.4,-89.08 50.64,-104.8l-12.22 26.19c-13.97,33.18 -55.89,83.82 -111.77,130.98zm3795.72 -637.42c-113.68,-3.45 -216.57,57.27 -281.85,181.72l0 -29.78 0 -40.16 0 -124.01 -171.14 118.75c26.19,-1.74 64.61,17.47 64.61,80.35l0 497.71 0 22.71c0,47.16 -22.71,76.82 -55.9,87.32 -33.16,10.48 -47.13,12.21 -62.85,12.21l345.77 0c-12.24,0 -26.19,-1.74 -38.42,-3.5 -27.92,-3.47 -82.06,-34.92 -82.06,-96.03l0 -502.25c98.84,-157.12 189.54,-140.16 215.48,-112.47 13.98,13.95 41.92,64.61 87.32,57.61 43.66,-1.74 64.63,-40.16 64.63,-73.35 0,-34.9 -24.47,-75.08 -85.59,-76.82zm410.97 20.95l3.47 0c0,-0.2 -1.29,-0.22 -3.47,0l-0 0 -300.38 0 20.95 3.5c27.92,1.74 75.08,33.19 103.03,83.82l314.34 714.25 -87.32 209.57c-17.47,38.42 -36.69,55.88 -57.63,54.14 -12.22,0 -40.16,-33.19 -61.11,-34.92 -34.95,-1.77 -57.64,13.97 -66.38,45.4 -8.74,36.69 13.97,75.11 54.13,82.08 54.14,6.97 100.97,-10.48 130.67,-82.08l108.27 -263.71 270.68 -665.35c17.48,-38.42 34.93,-66.38 50.66,-85.57 26.19,-31.44 57.61,-52.4 94.3,-61.14l-266.88 0c92.56,13.98 125.74,59.38 96.06,137.96l-7 20.97 -144.93 359.74c-17.48,33.19 -33.19,80.32 -61.14,80.32 -19.21,0 -36.66,-19.21 -55.87,-59.38l-193.86 -452.3c-23.06,-69.24 43.26,-85.6 59.41,-87.33l0 0zm-1031.05 625.2l0 -625.19 -221.78 0c15.71,0 27.93,0 61.11,10.48 33.18,10.47 54.13,41.89 54.13,89.06l0 478.22c-108.44,96.91 -224.61,163.05 -317.81,153.97 -62.05,-6.06 -77.14,-38 -92.56,-85.56 -3.92,-12.12 -7,-29.71 -8.74,-52.4 -3.38,-43.89 -3.5,-64.61 -3.5,-127.49l0 -26.21 -1.74 -440.07 0 0 -568.31 0c1.74,-106.71 1.74,-220.05 1.74,-317.84l-108.27 110.01 0 207.83 -97.8 0 20.97 22.54 76.83 0 0 441.98c0,96.06 0.15,145.15 27.95,220.04 26.14,70.42 78.58,110.04 164.14,115.27 83.82,5.24 153.67,-29.71 190.36,-82.08 34.92,-52.4 52.4,-87.32 61.11,-127.49 -34.93,83.83 -106.51,155.43 -209.54,143.2 -55.9,-7 -89.16,-32.14 -106.54,-80.32 -17.42,-48.33 -20.95,-90.82 -20.95,-179.89l0 -450.71 311.49 0c74.17,0.65 148.53,29.26 148.56,87.32l0 351.15 0 27.96c0,36.69 1.74,83.82 1.74,83.82 1.76,27.95 1.94,98.3 19.21,130.98 19.22,43.66 59.07,91.89 141.46,99.53 64.61,5.26 127.49,-10.47 190.35,-48.89 45.75,-29.22 123,-97.35 179.86,-152.51l0 80.92 0 122.25 169.41 -118.78 -10.48 0c-20.97,0 -52.4,-3.47 -52.4,-61.11zm-1434.32 57.63l0 -361.51 0 -34.92 0 -78.59c-1.74,-27.93 -5.23,-103.04 -19.21,-130.97 -19.21,-43.66 -59.4,-91.94 -141.45,-99.56 -64.54,-5.98 -127.49,10.48 -190.36,48.9 -43.43,27.78 -115.29,90.63 -171.15,144.09l0 -201.7 -174.62 122.25c12.23,-5.26 68.11,1.74 68.11,76.83l0 515.18c0,47.16 -20.97,78.59 -54.13,90.82 -33.18,12.21 -45.4,12.21 -61.14,12.21l338.82 0c-15.74,0 -27.96,0 -61.14,-12.21 -33.19,-12.24 -55.9,-43.66 -55.9,-90.82l0 -486.43c0.32,-0.28 0.65,-0.52 0.97,-0.8 126.32,-111.55 218.08,-155.58 308.14,-146.7 54.88,5.41 80.34,39.09 92.56,85.56 3.5,12.23 6.99,29.68 8.73,52.4 3.41,43.88 3.51,64.61 3.51,127.49l0 26.19 0 342.29c0,47.16 -20.95,78.59 -54.14,90.82 -33.19,12.21 -45.42,12.21 -61.14,12.21l340.55 0c-15.74,0 -27.95,0 -61.14,-12.21 -33.19,-12.24 -55.88,-43.66 -55.88,-90.82zm-1114.82 34.93c-190.35,-8.74 -310.84,-164.17 -310.84,-385.95l618.21 0c1.74,-106.51 -24.47,-192.1 -82.08,-258.45 -57.64,-66.37 -132.72,-101.29 -225.29,-104.8 -85.58,-1.74 -158.93,17.48 -223.54,57.64 -134.46,82.08 -199.07,204.33 -195.57,366.74 1.74,122.25 41.9,220.04 116.98,295.13 75.11,75.08 165.91,113.51 270.68,115.24 85.59,1.77 158.93,-22.69 221.8,-73.34 63.37,-51.73 103.04,-108.27 122.24,-179.86 -61.14,120.49 -164.16,176.39 -312.6,167.65zm-195.42 -669.17c48.9,-36.69 111.6,-54.13 176.21,-54.13 62.87,0 122.07,19.21 165.73,55.87 83.85,73.34 76.85,155.91 47.16,194.33 -24.45,34.92 -75.09,47.31 -151.94,52.55 -47.16,5.23 -169.23,6.97 -352.59,6.97 5.23,-132.72 38.57,-199.71 115.42,-255.59z"/>
   </g>
  </g>
  <path class="fil1" d="M19089.07 60c-80,0 -148.24,29.04 -204.69,86.94 -55.48,56.62 -83.23,123.88 -83.23,201.79 0,80.5 28.22,149.05 84.68,205.5 55.98,56.3 123.88,84.52 203.24,84.52 79.04,0 146.62,-28.39 202.76,-85.01 56.14,-57.1 84.2,-125.33 84.2,-205.01 0,-77.58 -27.9,-144.85 -83.72,-201.79 -56.46,-57.91 -124.2,-86.94 -203.24,-86.94zm347.93 288.41c0,98.88 -34.84,182.26 -104.52,250.02 -67.75,65.65 -149.05,98.4 -243.89,98.4 -98.08,0 -180.66,-33.55 -247.76,-100.65 -67.1,-67.11 -100.65,-149.7 -100.65,-247.76 0,-101.78 36.29,-186.47 108.72,-253.89 68.07,-63.07 147.92,-94.52 239.69,-94.52 96.13,0 178.24,34.03 246.31,102.1 68.06,68.07 102.1,150.18 102.1,246.31zm-286.48 -73.24c0,-21.29 -10.32,-36.12 -30.81,-44.51 -13.86,-5.33 -33.07,-8.07 -58.07,-8.07l-24.36 0 0 113.23 38.87 0c23.39,0 41.62,-4.83 54.69,-14.36 13.06,-9.51 19.67,-25 19.67,-46.29zm-214.85 266.79l0 -386.15c23.88,0 59.69,0 107.43,0.16 47.75,0.16 74.21,0.49 79.68,0.81 30.49,2.09 55.82,8.87 75.98,19.83 34.35,18.87 51.45,49.53 51.45,92.11 0,32.42 -9.03,55.98 -27.26,70.49 -18.22,14.52 -40.65,23.23 -67.26,26.13 24.52,4.99 42.91,12.41 55.32,22.25 22.91,18.22 34.36,46.93 34.36,86.29l0 34.52c0,3.87 0.32,7.58 0.8,11.29 0.49,3.87 1.29,7.58 2.58,11.45l3.39 10.8 -96.94 0c-3.06,-12.25 -5.17,-29.99 -6.14,-53.39 -0.96,-23.23 -3.06,-39.02 -6.13,-47.25 -4.99,-13.38 -14.36,-22.91 -28.22,-28.23 -7.42,-3.22 -18.87,-5.15 -34.2,-6.13l-22.09 -1.45 -21.13 0 0 136.46 -101.62 0z"/>
 </g>
</svg>
