<?xml version="1.0" encoding="UTF-8"?>
<!DOCTYPE svg PUBLIC "-//W3C//DTD SVG 1.1//EN" "http://www.w3.org/Graphics/SVG/1.1/DTD/svg11.dtd">
<!-- Creator: CorelDRAW 2020 (64 Bit) -->
<svg xmlns="http://www.w3.org/2000/svg" xml:space="preserve" width="515.398mm" height="297.782mm" version="1.1" style="shape-rendering:geometricPrecision; text-rendering:geometricPrecision; image-rendering:optimizeQuality; fill-rule:evenodd; clip-rule:evenodd"
viewBox="0 0 4177.95 2413.9"
 xmlns:xlink="http://www.w3.org/1999/xlink"
 xmlns:xodm="http://www.corel.com/coreldraw/odm/2003">
 <defs>
  <style type="text/css">
   <![CDATA[
    .fil1 {fill:black;fill-rule:nonzero}
    .fil0 {fill:black;fill-rule:nonzero}
   ]]>
  </style>
 </defs>
 <g id="Camada_x0020_1">
  <metadata id="CorelCorpID_0Corel-Layer"/>
  <g id="_1756512275792">
   <g>
    <polygon class="fil0" points="3854.22,1617.98 3854.22,13.52 3732.54,13.52 3187.21,1250.67 2628.36,13.52 2506.67,13.52 2506.67,1617.98 2628.36,1617.98 2628.36,295.2 3124.11,1392.64 3245.79,1392.64 3732.54,295.2 3732.54,1617.98 "/>
    <polygon class="fil0" points="2394.47,1617.98 2394.47,13.52 2272.78,13.52 2272.78,1617.98 "/>
    <polygon class="fil0" points="2160.58,1617.98 2160.58,1509.81 1308.78,1509.81 1308.78,13.52 1187.1,13.52 1187.1,1617.98 "/>
    <path class="fil0" d="M1074.9 1187.57c0,-130.71 -51.83,-234.36 -137.47,-308.72 -74.36,-63.1 -137.45,-87.89 -286.18,-110.43l-187.05 -29.29c-90.14,-13.52 -173.51,-45.07 -229.84,-92.4 -56.34,-47.32 -81.13,-119.42 -81.13,-211.82 0,-205.06 137.45,-331.26 371.82,-331.26 189.3,0 295.2,58.6 389.85,148.74l78.87 -78.88c-137.45,-119.42 -263.65,-173.51 -461.95,-173.51 -308.72,0 -498.01,171.27 -498.01,439.43 0,128.45 42.82,227.59 126.2,297.45 69.86,60.85 164.51,96.91 286.19,114.93l187.03 29.3c128.45,20.28 175.76,36.06 232.1,85.63 60.85,51.83 87.89,128.45 87.89,225.34 0,209.57 -157.75,331.26 -412.39,331.26 -191.53,0 -310.97,-45.07 -455.2,-189.28l-85.63 85.63c146.48,146.48 297.45,211.82 534.06,211.82 335.77,0 540.83,-173.51 540.83,-443.92z"/>
   </g>
   <g>
    <path class="fil0" d="M1496.4 1913.66c-25.31,0 -44.36,10.53 -57.45,31.29l0 -84.76 -18.77 0 0 199.11 18.77 0 0 -27.87c13.09,20.76 32.14,31.29 57.45,31.29 20.2,0 37.54,-7.11 51.77,-21.62 14.51,-14.51 21.62,-32.14 21.62,-52.9 0,-20.76 -7.11,-38.4 -21.62,-52.9 -14.22,-14.51 -31.57,-21.62 -51.77,-21.62zm-41.24 114.63c-10.8,-11.09 -16.21,-24.47 -16.21,-40.11 0,-15.64 5.4,-29.01 16.21,-39.82 10.81,-11.09 24.18,-16.5 39.82,-16.5 15.65,0 29.01,5.41 39.82,16.5 10.8,10.8 16.21,24.18 16.21,39.82 0,15.64 -5.41,29.01 -16.21,40.11 -10.81,10.8 -24.18,16.21 -39.82,16.21 -15.64,0 -29.01,-5.41 -39.82,-16.21zm196.55 7.96l-53.47 -119.18 -19.91 0 63.71 143.07 -3.7 8.82c-8.82,21.62 -21.9,31.57 -38.97,29.59l0 17.63c25.03,1.99 46.36,-15.65 57.45,-43.8l60.87 -155.3 -19.91 0 -46.08 119.18z"/>
    <path class="fil0" d="M2216.43 2227.15c-19.83,16.22 -55.28,29.44 -95.54,29.44 -49.27,-0.61 -91.33,-18.03 -126.78,-52.27 -35.45,-34.25 -54.67,-79.31 -57.68,-134.59 -4.81,-82.32 25.23,-149.01 76.31,-179.66 41.46,-25.83 87.13,-28.84 135.8,-9.01 41.45,16.83 73.3,46.87 94.93,89.53l0.6 -75.1 -8.41 -5.41c-11.42,-7.81 -40.86,-19.82 -72.1,-25.23 -21.63,-4.21 -45.07,-5.41 -70.9,-4.21 -106.35,7.81 -205.49,79.92 -201.89,220.52 0.61,55.27 23.43,108.15 61.89,148.4 37.85,40.86 100.34,63.69 170.03,55.89 39.05,-4.21 75.11,-24.64 93.74,-43.86 9.01,-9.61 17.42,-20.43 25.23,-32.44 14.42,-24.04 15.62,-30.65 17.42,-36.06l-4.2 9.01c-4.81,11.42 -19.23,28.84 -38.45,45.07zm1305.95 -219.31c-39.11,-1.19 -74.51,19.7 -96.97,62.52l0 -10.25 0 -13.82 0 -42.67 -58.88 40.86c9.01,-0.6 22.23,6.01 22.23,27.64l0 171.24 0 7.81c0,16.22 -7.81,26.43 -19.23,30.04 -11.41,3.6 -16.22,4.2 -21.62,4.2l118.96 0c-4.21,0 -9.01,-0.6 -13.22,-1.21 -9.61,-1.19 -28.23,-12.02 -28.23,-33.04l0 -172.8c34.01,-54.06 65.21,-48.22 74.14,-38.69 4.81,4.8 14.42,22.23 30.04,19.82 15.02,-0.6 22.24,-13.82 22.24,-25.24 0,-12.01 -8.42,-25.83 -29.45,-26.43zm141.4 7.21l1.19 0c0,-0.07 -0.45,-0.08 -1.19,0l-0 0 -103.35 0 7.21 1.21c9.61,0.6 25.83,11.42 35.45,28.84l108.15 245.74 -30.04 72.11c-6.01,13.22 -12.62,19.22 -19.83,18.63 -4.2,0 -13.82,-11.42 -21.02,-12.01 -12.03,-0.61 -19.83,4.81 -22.84,15.62 -3.01,12.62 4.81,25.84 18.63,28.24 18.63,2.4 34.74,-3.6 44.96,-28.24l37.25 -90.73 93.13 -228.92c6.01,-13.22 12.02,-22.84 17.43,-29.44 9.01,-10.82 19.82,-18.03 32.44,-21.03l-91.82 0c31.85,4.81 43.26,20.43 33.05,47.47l-2.41 7.22 -49.86 123.77c-6.01,11.42 -11.42,27.64 -21.03,27.64 -6.61,0 -12.61,-6.61 -19.22,-20.43l-66.7 -155.62c-7.94,-23.82 14.89,-29.45 20.44,-30.05l0 0zm-354.74 215.11l0 -215.1 -76.31 0c5.41,0 9.61,0 21.03,3.6 11.42,3.6 18.63,14.41 18.63,30.64l0 164.53c-37.31,33.34 -77.28,56.1 -109.35,52.98 -21.35,-2.08 -26.54,-13.07 -31.85,-29.44 -1.35,-4.17 -2.41,-10.22 -3.01,-18.03 -1.16,-15.1 -1.2,-22.23 -1.2,-43.86l0 -9.02 -0.6 -151.41 0 0 -195.53 0c0.6,-36.71 0.6,-75.71 0.6,-109.36l-37.25 37.85 0 71.51 -33.65 0 7.22 7.75 26.43 0 0 152.07c0,33.05 0.05,49.94 9.62,75.71 8.99,24.23 27.04,37.86 56.47,39.66 28.84,1.8 52.87,-10.22 65.5,-28.24 12.01,-18.03 18.03,-30.05 21.03,-43.86 -12.02,28.84 -36.65,53.48 -72.09,49.27 -19.23,-2.41 -30.68,-11.06 -36.66,-27.64 -5.99,-16.63 -7.21,-31.25 -7.21,-61.89l0 -155.07 107.17 0c25.52,0.22 51.1,10.07 51.11,30.05l0 120.82 0 9.62c0,12.62 0.6,28.84 0.6,28.84 0.6,9.62 0.67,33.82 6.61,45.07 6.61,15.02 20.33,31.62 48.67,34.24 22.23,1.81 43.86,-3.6 65.49,-16.82 15.74,-10.05 42.32,-33.5 61.88,-52.47l0 27.84 0 42.06 58.29 -40.87 -3.6 0c-7.22,0 -18.03,-1.19 -18.03,-21.02zm-493.49 19.83l0 -124.38 0 -12.02 0 -27.04c-0.6,-9.61 -1.8,-35.45 -6.61,-45.06 -6.61,-15.02 -20.44,-31.63 -48.67,-34.26 -22.21,-2.06 -43.86,3.6 -65.49,16.83 -14.94,9.56 -39.67,31.18 -58.88,49.58l0 -69.4 -60.08 42.06c4.21,-1.81 23.43,0.6 23.43,26.43l0 177.25c0,16.23 -7.22,27.04 -18.63,31.25 -11.42,4.2 -15.62,4.2 -21.03,4.2l116.57 0c-5.42,0 -9.62,0 -21.03,-4.2 -11.42,-4.21 -19.23,-15.02 -19.23,-31.25l0 -167.36c0.11,-0.09 0.22,-0.18 0.33,-0.27 43.46,-38.38 75.03,-53.53 106.02,-50.47 18.88,1.86 27.64,13.45 31.85,29.44 1.2,4.21 2.41,10.21 3,18.03 1.17,15.1 1.21,22.23 1.21,43.86l0 9.01 0 117.77c0,16.23 -7.21,27.04 -18.63,31.25 -11.42,4.2 -15.63,4.2 -21.03,4.2l117.17 0c-5.42,0 -9.62,0 -21.03,-4.2 -11.42,-4.21 -19.22,-15.02 -19.22,-31.25zm-383.57 12.02c-65.49,-3.01 -106.95,-56.49 -106.95,-132.79l212.7 0c0.6,-36.65 -8.42,-66.09 -28.24,-88.92 -19.83,-22.84 -45.66,-34.85 -77.51,-36.06 -29.44,-0.6 -54.68,6.01 -76.91,19.83 -46.26,28.24 -68.49,70.3 -67.29,126.18 0.6,42.06 14.42,75.71 40.25,101.54 25.84,25.83 57.08,39.05 93.13,39.65 29.45,0.61 54.68,-7.8 76.31,-25.23 21.8,-17.8 35.45,-37.25 42.06,-61.88 -21.03,41.45 -56.48,60.69 -107.55,57.68zm-67.24 -230.23c16.83,-12.62 38.4,-18.63 60.63,-18.63 21.63,0 42,6.61 57.02,19.22 28.85,25.23 26.44,53.64 16.23,66.86 -8.41,12.01 -25.84,16.28 -52.28,18.08 -16.23,1.8 -58.22,2.4 -121.31,2.4 1.8,-45.66 13.27,-68.71 39.71,-87.94z"/>
   </g>
  </g>
  <path class="fil1" d="M4058.07 34.19c-27.57,0 -51.07,10 -70.53,29.96 -19.12,19.51 -28.68,42.68 -28.68,69.52 0,27.73 9.72,51.35 29.18,70.81 19.29,19.4 42.68,29.12 70.03,29.12 27.23,0 50.52,-9.78 69.86,-29.29 19.34,-19.67 29.01,-43.18 29.01,-70.64 0,-26.73 -9.61,-49.91 -28.85,-69.52 -19.45,-19.95 -42.79,-29.96 -70.03,-29.96zm119.88 99.37c0,34.07 -12,62.8 -36.01,86.14 -23.34,22.62 -51.35,33.9 -84.03,33.9 -33.79,0 -62.25,-11.56 -85.37,-34.68 -23.12,-23.12 -34.68,-51.58 -34.68,-85.37 0,-35.07 12.5,-64.25 37.46,-87.48 23.45,-21.73 50.96,-32.57 82.59,-32.57 33.12,0 61.41,11.72 84.87,35.18 23.45,23.45 35.18,51.74 35.18,84.87zm-98.7 -25.23c0,-7.33 -3.56,-12.45 -10.61,-15.34 -4.78,-1.84 -11.39,-2.78 -20.01,-2.78l-8.39 0 0 39.01 13.39 0c8.06,0 14.34,-1.67 18.84,-4.95 4.5,-3.28 6.78,-8.61 6.78,-15.95zm-74.03 91.92l0 -133.05c8.23,0 20.57,0 37.01,0.06 16.45,0.06 25.57,0.17 27.45,0.28 10.5,0.72 19.23,3.06 26.18,6.83 11.84,6.5 17.73,17.07 17.73,31.74 0,11.17 -3.11,19.29 -9.39,24.29 -6.28,5 -14.01,8 -23.17,9 8.45,1.72 14.78,4.28 19.06,7.67 7.89,6.28 11.84,16.17 11.84,29.73l0 11.89c0,1.34 0.11,2.61 0.28,3.89 0.17,1.34 0.45,2.61 0.89,3.95l1.17 3.72 -33.4 0c-1.06,-4.22 -1.78,-10.33 -2.11,-18.4 -0.33,-8 -1.06,-13.45 -2.11,-16.28 -1.72,-4.61 -4.95,-7.89 -9.72,-9.73 -2.56,-1.11 -6.5,-1.78 -11.78,-2.11l-7.61 -0.5 -7.28 0 0 47.02 -35.01 0z"/>
 </g>
</svg>
