<?xml version="1.0" encoding="UTF-8"?>
<!DOCTYPE svg PUBLIC "-//W3C//DTD SVG 1.1//EN" "http://www.w3.org/Graphics/SVG/1.1/DTD/svg11.dtd">
<!-- Creator: CorelDRAW 2020 (64 Bit) -->
<svg xmlns="http://www.w3.org/2000/svg" xml:space="preserve" width="717.268mm" height="256.07mm" version="1.1" style="shape-rendering:geometricPrecision; text-rendering:geometricPrecision; image-rendering:optimizeQuality; fill-rule:evenodd; clip-rule:evenodd"
viewBox="0 0 4436.37 1583.82"
 xmlns:xlink="http://www.w3.org/1999/xlink"
 xmlns:xodm="http://www.corel.com/coreldraw/odm/2003">
 <defs>
  <style type="text/css">
   <![CDATA[
    .fil1 {fill:black;fill-rule:nonzero}
    .fil0 {fill:black;fill-rule:nonzero}
   ]]>
  </style>
 </defs>
 <g id="Camada_x0020_1">
  <metadata id="CorelCorpID_0Corel-Layer"/>
  <g id="_1791797138608">
   <path class="fil0" d="M733.2 668.03l-241.69 0c-14.93,54.31 -44.81,103.19 -123.56,103.19 -43.45,0 -76.04,-17.65 -93.69,-40.73 -21.73,-28.51 -36.66,-62.46 -36.66,-238.97 0,-176.51 14.93,-210.45 36.66,-238.97 17.65,-23.08 50.24,-40.73 93.69,-40.73 78.75,0 108.62,48.88 123.56,103.19l241.69 0c-35.3,-213.17 -181.94,-315 -365.24,-315 -118.13,0 -199.59,36.66 -268.84,105.91 -99.12,99.12 -99.12,222.67 -99.12,385.61 0,162.93 0,286.49 99.12,385.61 69.24,69.24 150.71,105.9 268.84,105.9 183.3,0 329.94,-101.83 365.24,-315zm1176.95 -176.51c0,-162.93 0,-286.49 -99.12,-385.61 -69.25,-69.25 -150.72,-105.91 -268.84,-105.91 -118.13,0 -199.59,36.66 -268.84,105.91 -99.12,99.12 -99.12,222.67 -99.12,385.61 0,162.93 0,286.49 99.12,385.61 69.24,69.24 150.71,105.9 268.84,105.9 118.12,0 199.59,-36.66 268.84,-105.9 99.12,-99.12 99.12,-222.68 99.12,-385.61zm-237.61 0c0,176.51 -13.58,207.74 -35.3,236.25 -17.65,23.08 -51.6,43.45 -95.04,43.45 -43.45,0 -77.39,-20.37 -95.04,-43.45 -21.73,-28.51 -35.3,-59.74 -35.3,-236.25 0,-176.51 13.58,-209.1 35.3,-237.61 17.65,-23.08 51.59,-42.09 95.04,-42.09 43.45,0 77.39,19.01 95.04,42.09 21.72,28.51 35.3,61.1 35.3,237.61zm1314.09 483.37l0 -211.81 -372.03 0 372.03 -570.27 0 -184.66 -639.51 0 0 211.81 354.38 0 -370.67 570.26 0 184.66 655.8 0zm1202.75 -966.74l-259.33 0 -150.71 347.59 -152.07 -347.59 -259.33 0 291.92 572.98 0 393.75 237.61 0 0 -393.75 291.92 -572.98z"/>
   <path class="fil0" d="M2377.87 1200.65c-19.39,0 -33.98,8.06 -44.01,23.97l0 -64.93 -14.38 0 0 152.51 14.38 0 0 -21.35c10.02,15.9 24.62,23.97 44.01,23.97 15.47,0 28.76,-5.45 39.66,-16.56 11.11,-11.11 16.56,-24.62 16.56,-40.52 0,-15.9 -5.44,-29.41 -16.56,-40.52 -10.9,-11.11 -24.18,-16.56 -39.66,-16.56zm-31.59 87.81c-8.28,-8.5 -12.41,-18.74 -12.41,-30.72 0,-11.98 4.14,-22.22 12.41,-30.5 8.28,-8.5 18.52,-12.64 30.5,-12.64 11.99,0 22.22,4.14 30.5,12.64 8.28,8.28 12.42,18.52 12.42,30.5 0,11.98 -4.14,22.22 -12.42,30.72 -8.28,8.28 -18.52,12.42 -30.5,12.42 -11.98,0 -22.22,-4.14 -30.5,-12.42zm150.55 6.1l-40.96 -91.29 -15.25 0 48.8 109.59 -2.83 6.75c-6.75,16.56 -16.78,24.18 -29.85,22.66l0 13.51c19.17,1.52 35.51,-11.99 44.01,-33.55l46.63 -118.96 -15.25 0 -35.3 91.29z"/>
   <path class="fil0" d="M2929.4 1440.77c-15.19,12.43 -42.35,22.55 -73.18,22.55 -37.74,-0.46 -69.96,-13.81 -97.11,-40.04 -27.15,-26.24 -41.88,-60.75 -44.18,-103.1 -3.68,-63.05 19.33,-114.14 58.45,-137.62 31.76,-19.79 66.74,-22.09 104.02,-6.9 31.75,12.89 56.15,35.9 72.72,68.58l0.46 -57.53 -6.44 -4.15c-8.75,-5.98 -31.29,-15.18 -55.22,-19.32 -16.57,-3.22 -34.52,-4.15 -54.31,-3.22 -81.46,5.99 -157.4,61.22 -154.64,168.91 0.46,42.34 17.95,82.84 47.41,113.67 28.99,31.3 76.85,48.79 130.24,42.81 29.91,-3.23 57.53,-18.87 71.8,-33.6 6.9,-7.37 13.34,-15.65 19.33,-24.85 11.04,-18.41 11.96,-23.48 13.35,-27.62l-3.22 6.9c-3.68,8.75 -14.73,22.09 -29.46,34.52zm1000.34 -167.99c-29.96,-0.91 -57.08,15.09 -74.28,47.89l0 -7.85 0 -10.58 0 -32.68 -45.1 31.3c6.9,-0.46 17.03,4.6 17.03,21.17l0 131.17 0 5.99c0,12.43 -5.99,20.25 -14.73,23.01 -8.74,2.76 -12.42,3.22 -16.56,3.22l91.12 0c-3.22,0 -6.9,-0.46 -10.13,-0.92 -7.36,-0.91 -21.63,-9.2 -21.63,-25.31l0 -132.36c26.05,-41.41 49.95,-36.94 56.79,-29.64 3.68,3.68 11.05,17.03 23.01,15.18 11.51,-0.46 17.03,-10.58 17.03,-19.33 0,-9.2 -6.45,-19.79 -22.56,-20.25zm108.31 5.52l0.91 0c0,-0.05 -0.34,-0.06 -0.91,0l-0 0 -79.16 0 5.52 0.92c7.36,0.46 19.79,8.75 27.15,22.09l82.84 188.24 -23.01 55.23c-4.6,10.13 -9.67,14.73 -15.19,14.27 -3.22,0 -10.58,-8.75 -16.1,-9.2 -9.21,-0.47 -15.19,3.68 -17.49,11.96 -2.3,9.67 3.68,19.79 14.27,21.63 14.27,1.84 26.61,-2.76 34.44,-21.63l28.53 -69.5 71.34 -175.35c4.61,-10.13 9.2,-17.49 13.35,-22.55 6.9,-8.29 15.18,-13.81 24.85,-16.11l-70.33 0c24.39,3.68 33.14,15.65 25.31,36.36l-1.85 5.53 -38.19 94.81c-4.61,8.75 -8.75,21.17 -16.11,21.17 -5.06,0 -9.66,-5.06 -14.72,-15.65l-51.09 -119.2c-6.08,-18.25 11.4,-22.56 15.66,-23.01l0 0zm-271.73 164.77l0 -164.76 -58.45 0c4.14,0 7.36,0 16.11,2.76 8.74,2.76 14.27,11.04 14.27,23.47l0 126.03c-28.58,25.54 -59.2,42.97 -83.76,40.58 -16.35,-1.6 -20.33,-10.02 -24.39,-22.55 -1.03,-3.19 -1.85,-7.83 -2.3,-13.81 -0.89,-11.57 -0.92,-17.03 -0.92,-33.6l0 -6.91 -0.46 -115.98 0 0 -149.78 0c0.46,-28.12 0.46,-57.99 0.46,-83.77l-28.53 28.99 0 54.77 -25.77 0 5.53 5.94 20.25 0 0 116.48c0,25.31 0.04,38.25 7.37,57.99 6.89,18.56 20.71,29 43.26,30.38 22.09,1.38 40.5,-7.83 50.17,-21.63 9.2,-13.81 13.81,-23.01 16.1,-33.6 -9.2,22.09 -28.07,40.96 -55.22,37.74 -14.73,-1.85 -23.5,-8.47 -28.08,-21.17 -4.59,-12.74 -5.52,-23.94 -5.52,-47.41l0 -118.78 82.09 0c19.55,0.17 39.14,7.71 39.15,23.01l0 92.54 0 7.37c0,9.67 0.46,22.09 0.46,22.09 0.46,7.37 0.51,25.91 5.06,34.52 5.06,11.51 15.57,24.22 37.28,26.23 17.03,1.39 33.6,-2.76 50.17,-12.89 12.06,-7.7 32.42,-25.66 47.4,-40.19l0 21.33 0 32.22 44.65 -31.3 -2.76 0c-5.53,0 -13.81,-0.91 -13.81,-16.1zm-378.01 15.19l0 -95.27 0 -9.2 0 -20.71c-0.46,-7.36 -1.38,-27.15 -5.06,-34.51 -5.06,-11.51 -15.65,-24.23 -37.28,-26.24 -17.01,-1.58 -33.6,2.76 -50.17,12.89 -11.45,7.32 -30.38,23.88 -45.1,37.97l0 -53.16 -46.02 32.22c3.22,-1.39 17.95,0.46 17.95,20.25l0 135.77c0,12.43 -5.53,20.71 -14.27,23.94 -8.75,3.22 -11.96,3.22 -16.11,3.22l89.29 0c-4.15,0 -7.37,0 -16.11,-3.22 -8.75,-3.22 -14.73,-11.51 -14.73,-23.94l0 -128.2c0.09,-0.07 0.17,-0.14 0.26,-0.21 33.29,-29.4 57.47,-41 81.21,-38.66 14.46,1.43 21.17,10.3 24.39,22.55 0.92,3.22 1.84,7.82 2.3,13.81 0.9,11.57 0.92,17.03 0.92,33.6l0 6.9 0 90.21c0,12.43 -5.52,20.71 -14.27,23.94 -8.75,3.22 -11.97,3.22 -16.11,3.22l89.75 0c-4.15,0 -7.37,0 -16.11,-3.22 -8.75,-3.22 -14.72,-11.51 -14.72,-23.94zm-293.8 9.21c-50.17,-2.3 -81.92,-43.27 -81.92,-101.72l162.92 0c0.46,-28.07 -6.45,-50.63 -21.63,-68.11 -15.19,-17.49 -34.98,-26.69 -59.37,-27.62 -22.55,-0.46 -41.88,4.61 -58.91,15.19 -35.44,21.63 -52.46,53.85 -51.54,96.65 0.46,32.22 11.04,57.99 30.83,77.78 19.79,19.79 43.72,29.91 71.34,30.37 22.56,0.47 41.88,-5.98 58.45,-19.33 16.7,-13.63 27.15,-28.53 32.22,-47.4 -16.11,31.75 -43.26,46.49 -82.38,44.18zm-51.5 -176.36c12.89,-9.67 29.41,-14.27 46.44,-14.27 16.57,0 32.17,5.06 43.68,14.73 22.1,19.33 20.25,41.09 12.43,51.21 -6.44,9.2 -19.79,12.47 -40.04,13.85 -12.43,1.38 -44.6,1.84 -92.92,1.84 1.38,-34.98 10.17,-52.63 30.42,-67.36z"/>
   <path class="fil1" d="M4344.91 23.92c-21.03,0 -38.97,7.63 -53.81,22.86 -14.59,14.88 -21.88,32.57 -21.88,53.05 0,21.16 7.42,39.18 22.26,54.02 14.72,14.8 32.57,22.22 53.43,22.22 20.78,0 38.55,-7.46 53.3,-22.35 14.76,-15.01 22.14,-32.95 22.14,-53.9 0,-20.39 -7.34,-38.08 -22.01,-53.05 -14.84,-15.22 -32.65,-22.86 -53.43,-22.86zm91.47 75.82c0,25.99 -9.16,47.92 -27.48,65.73 -17.81,17.26 -39.18,25.87 -64.12,25.87 -25.78,0 -47.49,-8.82 -65.13,-26.46 -17.64,-17.64 -26.46,-39.35 -26.46,-65.13 0,-26.76 9.54,-49.02 28.58,-66.74 17.9,-16.58 38.89,-24.85 63.01,-24.85 25.27,0 46.86,8.95 64.75,26.84 17.89,17.89 26.84,39.48 26.84,64.75zm-75.31 -19.25c0,-5.6 -2.71,-9.5 -8.1,-11.7 -3.64,-1.4 -8.69,-2.12 -15.27,-2.12l-6.4 0 0 29.77 10.22 0c6.15,0 10.94,-1.27 14.38,-3.77 3.43,-2.5 5.17,-6.57 5.17,-12.17zm-56.48 70.14l0 -101.52c6.28,0 15.69,0 28.24,0.04 12.55,0.04 19.51,0.13 20.95,0.21 8.01,0.55 14.67,2.33 19.97,5.21 9.03,4.96 13.53,13.02 13.53,24.21 0,8.52 -2.37,14.72 -7.17,18.53 -4.79,3.82 -10.69,6.11 -17.68,6.87 6.45,1.31 11.28,3.26 14.54,5.85 6.02,4.79 9.03,12.34 9.03,22.69l0 9.08c0,1.02 0.08,1.99 0.21,2.97 0.13,1.02 0.34,1.99 0.68,3.01l0.89 2.84 -25.49 0c-0.81,-3.22 -1.36,-7.88 -1.61,-14.04 -0.25,-6.11 -0.81,-10.26 -1.61,-12.42 -1.31,-3.52 -3.77,-6.02 -7.42,-7.42 -1.95,-0.85 -4.96,-1.36 -8.99,-1.61l-5.81 -0.38 -5.56 0 0 35.87 -26.72 0z"/>
  </g>
 </g>
</svg>
